<?xml version="1.0" encoding="UTF-8"?>
<!DOCTYPE svg PUBLIC "-//W3C//DTD SVG 1.1//EN" "http://www.w3.org/Graphics/SVG/1.1/DTD/svg11.dtd">
<!-- Creator: CorelDRAW -->
<svg xmlns="http://www.w3.org/2000/svg" xml:space="preserve" width="50px" height="50px" style="shape-rendering:geometricPrecision; text-rendering:geometricPrecision; image-rendering:optimizeQuality; fill-rule:evenodd; clip-rule:evenodd"
viewBox="0 0 50 50"
 version="1.1"
 xmlns:xlink="http://www.w3.org/1999/xlink">
 <defs>
  <style type="text/css">
   <![CDATA[
    .fil0 {fill:#131516}
   ]]>
  </style>
 </defs>
 <g id="Capa_x0020_1">
  <metadata id="CorelCorpID_0Corel-Layer"/>
  <g id="_152169928">
   <g>
    <g>
     <path id="_153463400" class="fil0" d="M32.1779 8.74464l-23.2439 0c-2.18099,0 -3.95237,1.77138 -3.95237,3.95237l0 33.3503c0,2.18099 1.77138,3.95237 3.95237,3.95237l23.2439 0.000283466c2.18099,0 3.95237,-1.77138 3.95237,-3.95237l0.000283466 -33.3506c-0.0104882,-2.18099 -1.78187,-3.95237 -3.95265,-3.95237zm1.17752 37.2925c0,0.655373 -0.532349,1.18772 -1.18772,1.18772l-23.2439 0.000283466c-0.655373,0 -1.18772,-0.532349 -1.18772,-1.18772l0 -33.3404c0,-0.655373 0.532349,-1.18772 1.18772,-1.18772l23.2439 0c0.655373,0 1.18772,0.532349 1.18772,1.18772l0 33.3401z"/>
     <path id="_153468896" class="fil0" d="M41.066 0l-23.2439 0c-2.18099,0 -3.95237,1.77138 -3.95237,3.95237 0,0.767909 0.614271,1.38246 1.38246,1.38246 0.768193,0 1.38246,-0.614271 1.38246,-1.38246 0,-0.655373 0.532349,-1.18772 1.18772,-1.18772l23.2436 0c0.655373,0 1.18772,0.532349 1.18772,1.18772l0 33.3503c0,0.655373 -0.532349,1.18772 -1.18772,1.18772 -0.767909,0 -1.38246,0.614271 -1.38246,1.38246 0,0.768193 0.614271,1.38246 1.38246,1.38246 2.18099,0 3.95237,-1.77138 3.95237,-3.95237l0 -33.3506c0,-2.18099 -1.77138,-3.95237 -3.95237,-3.95237z"/>
    </g>
   </g>
   <g>
   </g>
   <g>
   </g>
   <g>
   </g>
   <g>
   </g>
   <g>
   </g>
   <g>
   </g>
   <g>
   </g>
   <g>
   </g>
   <g>
   </g>
   <g>
   </g>
   <g>
   </g>
   <g>
   </g>
   <g>
   </g>
   <g>
   </g>
   <g>
   </g>
  </g>
 </g>
</svg>
