<?xml version="1.0" encoding="UTF-8"?>
<!DOCTYPE svg PUBLIC "-//W3C//DTD SVG 1.1//EN" "http://www.w3.org/Graphics/SVG/1.1/DTD/svg11.dtd">
<!-- Creator: CorelDRAW -->
<svg xmlns="http://www.w3.org/2000/svg" xml:space="preserve" width="50px" height="50px" style="shape-rendering:geometricPrecision; text-rendering:geometricPrecision; image-rendering:optimizeQuality; fill-rule:evenodd; clip-rule:evenodd"
viewBox="0 0 50 50"
 version="1.1"
 xmlns:xlink="http://www.w3.org/1999/xlink">
 <defs>
  <style type="text/css">
   <![CDATA[
    .fil0 {fill:#131516}
   ]]>
  </style>
 </defs>
 <g id="Capa_x0020_1">
  <metadata id="CorelCorpID_0Corel-Layer"/>
  <g id="_21490832">
   <g>
    <g>
     <path id="_153341624" class="fil0" d="M24.8189 26.9415c0.0518743,0 0.103465,0 0.165544,0 0.020693,0 0.041386,0 0.0620791,0 0.0311813,0 0.0725673,0 0.103465,0 3.03365,-0.0518743 5.48762,-1.11827 7.29953,-3.15809 3.98638,-4.49379 3.32364,-12.1973 3.25107,-12.9323 -0.258804,-5.5188 -2.86811,-8.159 -5.02188,-9.39123 -1.60442,-0.921548 -3.47841,-1.41846 -5.56982,-1.45985l-0.0725673 0c-0.0104882,0 -0.0311813,0 -0.041386,0l-0.0620791 0c-1.14917,0 -3.40641,0.186237 -5.57039,1.41846 -2.17447,1.23223 -4.82487,3.87243 -5.08396,9.43261 -0.0725673,0.735027 -0.735027,8.4385 3.25107,12.9323 1.80171,2.03982 4.25539,3.10622 7.28933,3.15809zm-7.77604 -15.8316c0,-0.0311813 0.0104882,-0.0620791 0.0104882,-0.0827721 0.341577,-7.42397 5.61206,-8.22108 7.86902,-8.22108l0.041386 0c0.020693,0 0.0518743,0 0.0827721,0 2.79554,0.0620791 7.54813,1.20105 7.86902,8.22108 0,0.0311813 0,0.0620791 0.0104882,0.0827721 0.0104882,0.0725673 0.735027,7.1133 -2.55743,10.8202 -1.30451,1.47034 -3.04414,2.19516 -5.33228,2.21585 -0.020693,0 -0.0311813,0 -0.0518743,0l0 0c-0.020693,0 -0.0311813,0 -0.0518743,0 -2.27793,-0.020693 -4.02777,-0.745516 -5.32207,-2.21585 -3.28197,-3.68619 -2.57784,-10.7581 -2.56763,-10.8202z"/>
     <path id="_153882808" class="fil0" d="M46.2622 39.7184c0,-0.0104882 0,-0.020693 0,-0.0311813 0,-0.0827721 -0.0104882,-0.165544 -0.0104882,-0.258804 -0.0620791,-2.05003 -0.196725,-6.844 -4.69051,-8.37642 -0.0311813,-0.0104882 -0.0725673,-0.020693 -0.103465,-0.0311813 -4.66982,-1.19084 -8.55245,-3.88292 -8.59384,-3.91381 -0.631562,-0.445325 -1.50124,-0.289986 -1.94656,0.341577 -0.445325,0.631562 -0.289986,1.50124 0.341577,1.94656 0.176032,0.124158 4.29706,2.99227 9.45331,4.31775 2.41258,0.859469 2.68159,3.43759 2.75416,5.7983 0,0.0932603 0,0.176032 0.0104882,0.258804 0.0104882,0.931753 -0.0518743,2.37119 -0.217418,3.19948 -1.67727,0.952446 -8.25226,4.24519 -18.2544,4.24519 -9.96071,0 -16.5768,-3.30295 -18.2646,-4.25567 -0.165544,-0.828288 -0.238111,-2.26744 -0.217418,-3.19948 0,-0.0827721 0.0104882,-0.165544 0.0104882,-0.258804 0.0725673,-2.3607 0.341577,-4.93883 2.75416,-5.7983 5.15625,-1.3252 9.27728,-4.2038 9.45331,-4.31775 0.631562,-0.445325 0.786902,-1.315 0.341577,-1.94656 -0.445325,-0.631562 -1.315,-0.786902 -1.94656,-0.341577 -0.041386,0.0311813 -3.90361,2.72326 -8.59384,3.91381 -0.041386,0.0104882 -0.0725673,0.020693 -0.103465,0.0311813 -4.49379,1.54262 -4.62815,6.3366 -4.69051,8.37642 0,0.0932603 0,0.176032 -0.0104882,0.258804 0,0.0104882 0,0.020693 0,0.0311813 -0.0104882,0.538302 -0.020693,3.30295 0.528097,4.69051 0.103465,0.269293 0.289986,0.496916 0.538302,0.652255 0.310679,0.207214 7.75535,4.94932 20.2111,4.94932 12.4558,0 19.9007,-4.75259 20.2111,-4.94932 0.238111,-0.155339 0.434837,-0.382963 0.538302,-0.652255 0.518176,-1.37708 0.507688,-4.14172 0.497483,-4.68002z"/>
    </g>
   </g>
   <g>
   </g>
   <g>
   </g>
   <g>
   </g>
   <g>
   </g>
   <g>
   </g>
   <g>
   </g>
   <g>
   </g>
   <g>
   </g>
   <g>
   </g>
   <g>
   </g>
   <g>
   </g>
   <g>
   </g>
   <g>
   </g>
   <g>
   </g>
   <g>
   </g>
  </g>
 </g>
</svg>
