<?xml version="1.0" encoding="UTF-8"?>
<!DOCTYPE svg PUBLIC "-//W3C//DTD SVG 1.1//EN" "http://www.w3.org/Graphics/SVG/1.1/DTD/svg11.dtd">
<!-- Creator: CorelDRAW -->
<svg xmlns="http://www.w3.org/2000/svg" xml:space="preserve" width="50px" height="50px" style="shape-rendering:geometricPrecision; text-rendering:geometricPrecision; image-rendering:optimizeQuality; fill-rule:evenodd; clip-rule:evenodd"
viewBox="0 0 50 50"
 version="1.1"
 xmlns:xlink="http://www.w3.org/1999/xlink">
 <defs>
  <style type="text/css">
   <![CDATA[
    .fil0 {fill:#202326}
   ]]>
  </style>
 </defs>
 <g id="Capa_x0020_1">
  <metadata id="CorelCorpID_0Corel-Layer"/>
  <path id="_148851576" class="fil0" d="M46.0499 32.604c0.116221,-0.0501735 0.216285,-0.0952446 0.299057,-0.132379 0.0532916,-0.0303309 0.109418,-0.0555593 0.168379,-0.0756854l1.78017 -0.807878c0.259655,-0.130678 0.574869,-0.146835 0.860319,-0.0181418 0.502585,0.226489 0.726523,0.817799 0.500034,1.32038l-0.858619 1.90517c-2.4894,5.51171 -6.7927,9.8323 -12.0187,12.3821 -1.15201,0.562113 -2.36042,1.04145 -3.61419,1.43037 -1.24725,0.386931 -2.52625,0.679751 -3.82452,0.870524 -1.19764,0.176032 -2.43185,0.267308 -3.69356,0.267875 -2.80405,-0.000566932 -5.50293,-0.45638 -8.02577,-1.29657 -3.78796,-1.26199 -7.17849,-3.39025 -9.93407,-6.14809 -2.75387,-2.75557 -4.87845,-6.14583 -6.13817,-9.93435 -0.838776,-2.52341 -1.29289,-5.22286 -1.29204,-8.02606 0.000566932,-4.20465 1.03749,-8.24404 2.91601,-11.8163 0.544255,-1.03522 1.16505,-2.0384 1.85642,-3.00049 0.689956,-0.960383 1.44313,-1.86974 2.25355,-2.71872 2.21529,-2.32102 4.8878,-4.24179 7.91862,-5.61064l0.000850398 0.0017008 0.00311813 -0.0017008 1.90631 -0.8555 0.000850398 0.0017008c0.252001,-0.112536 0.54879,-0.121323 0.8195,0.00226773 0.500317,0.228474 0.720571,0.820067 0.492097,1.32038l-0.845579 1.84026 -0.0232442 0.0552759c-0.861453,1.89894 -1.44341,3.90616 -1.72773,5.95817 -0.0564097,0.40649 -0.102048,0.829988 -0.136347,1.26879 -0.0357167,0.457231 -0.0575436,0.88243 -0.0649137,1.27361 -0.00283466,0.164127 -0.00425199,0.326269 -0.00396852,0.483026 0.00935438,8.16042 4.49294,15.2743 11.1289,19.0189 1.34788,0.760256 2.79157,1.38388 4.31067,1.84962 1.50747,0.46205 3.0895,0.765925 4.72566,0.89065 0.574869,0.0439372 1.13103,0.066898 1.66593,0.0671814l0.00595279 0c2.0951,0.00822051 4.18141,-0.294238 6.18976,-0.892634 0.419813,-0.125009 0.825453,-0.259088 1.21408,-0.400537 0.401104,-0.145702 0.782933,-0.29849 1.1452,-0.454396l0.0399687 -0.0178584zm-8.59497 1.76543l0.00198426 0m-1.09616 9.00515l0.00481892 -0.00283466 0.000566932 0.000850398 0.0150237 -0.00850398c2.4843,-1.40202 4.66358,-3.2831 6.42277,-5.52107 0.146835,-0.186804 0.287718,-0.375309 0.426049,-0.562397 -0.859185,0.201828 -1.72773,0.357734 -2.60193,0.467719l-0.000566932 -0.00368506c-0.430018,0.054142 -0.814114,0.0943942 -1.15286,0.12104 -0.350081,0.0277797 -0.738145,0.0487562 -1.16278,0.0620791 -0.275529,0.00878745 -0.560979,0.0130394 -0.854933,0.0124725 -9.618,-0.0136064 -17.9848,-5.36573 -22.2957,-13.2495 -0.869957,-1.59081 -1.5755,-3.28707 -2.09255,-5.06327 -0.517609,-1.77903 -0.846996,-3.63573 -0.963501,-5.54459 -0.0297639,-0.490113 -0.045638,-1.00545 -0.046205,-1.54404 -0.00623625,-1.90546 0.204946,-3.79873 0.625893,-5.64012l0.033449 -0.141166c-4.05073,2.96647 -6.827,7.14278 -8.10571,11.7361 -1.49528,5.36998 -0.946776,11.3072 1.9956,16.5451l0.0141733 0.0246615 0.00651972 0.0113386 -0.000566932 0.000283466 0.00425199 0.00737012c4.26503,7.55975 12.362,11.5966 20.4827,11.0546 1.58061,-0.105166 3.16121,-0.384096 4.71177,-0.842744 1.54177,-0.456097 3.05265,-1.08851 4.50484,-1.90262l0.0289135 -0.017008z"/>
 </g>
</svg>
