<?xml version="1.0" encoding="UTF-8"?>
<!DOCTYPE svg PUBLIC "-//W3C//DTD SVG 1.1//EN" "http://www.w3.org/Graphics/SVG/1.1/DTD/svg11.dtd">
<!-- Creator: CorelDRAW -->
<svg xmlns="http://www.w3.org/2000/svg" xml:space="preserve" width="50px" height="50px" style="shape-rendering:geometricPrecision; text-rendering:geometricPrecision; image-rendering:optimizeQuality; fill-rule:evenodd; clip-rule:evenodd"
viewBox="0 0 50 50"
 version="1.1"
 xmlns:xlink="http://www.w3.org/1999/xlink">
 <defs>
  <style type="text/css">
   <![CDATA[
    .fil0 {fill:#151619}
   ]]>
  </style>
 </defs>
 <g id="Capa_x0020_1">
  <metadata id="CorelCorpID_0Corel-Layer"/>
  <g id="_147587056">
   <g>
    <path id="_149402408" class="fil0" d="M25.0003 0.104032c-13.8071,0 -25.0003,11.1932 -25.0003,25.0003 0,12.3832 9.01308,22.6387 20.8305,24.6247l0 -19.4089 -6.03074 -0.000283466 0 -6.9846 6.03074 0.000283466 0 -5.15001c0,-5.97546 3.64962,-9.23192 8.98105,-9.23192 2.55346,0 4.74777,0.190206 5.38472,0.274112l0 6.24617 -3.69781 0.0017008c-2.89872,0 -3.45772,1.37708 -3.45772,3.39904l0 4.4575 6.91714 -0.000283466 -0.902272 6.9846 -6.0143 0 0 19.5796c12.3693,-1.50549 21.9587,-12.0221 21.9587,-24.7987 0,-13.8 -11.1932,-24.9932 -24.9997,-24.9932z"/>
   </g>
   <g>
   </g>
   <g>
   </g>
   <g>
   </g>
   <g>
   </g>
   <g>
   </g>
   <g>
   </g>
   <g>
   </g>
   <g>
   </g>
   <g>
   </g>
   <g>
   </g>
   <g>
   </g>
   <g>
   </g>
   <g>
   </g>
   <g>
   </g>
   <g>
   </g>
  </g>
 </g>
</svg>
