<?xml version="1.0" encoding="UTF-8"?>
<!DOCTYPE svg PUBLIC "-//W3C//DTD SVG 1.1//EN" "http://www.w3.org/Graphics/SVG/1.1/DTD/svg11.dtd">
<!-- Creator: CorelDRAW -->
<svg xmlns="http://www.w3.org/2000/svg" xml:space="preserve" width="50px" height="50px" style="shape-rendering:geometricPrecision; text-rendering:geometricPrecision; image-rendering:optimizeQuality; fill-rule:evenodd; clip-rule:evenodd"
viewBox="0 0 50 50"
 version="1.1"
 xmlns:xlink="http://www.w3.org/1999/xlink">
 <defs>
  <style type="text/css">
   <![CDATA[
    .fil0 {fill:#131516}
   ]]>
  </style>
 </defs>
 <g id="Capa_x0020_1">
  <metadata id="CorelCorpID_0Corel-Layer"/>
  <g id="_152320920">
   <g>
    <g>
     <path id="_153797224" class="fil0" d="M49.2619 15.5475c-0.204946,-0.112819 -5.00317,-2.60392 -12.9998,-4.11111l-0.307561 -1.31216c-0.799658,-3.43447 -3.82396,-5.84365 -7.36104,-5.84365l-7.187 -0.000283466c-3.52688,0 -6.55118,2.39897 -7.36104,5.84365l-0.307561 1.31216c-7.99686,1.4967 -12.7948,3.99829 -12.9998,4.11111 -0.450994,0.235844 -0.738145,0.707531 -0.738145,1.22004l0 16.301c0,6.53077 5.31074,11.8514 11.8514,11.8514 0.769043,0 1.38416,-0.615121 1.38416,-1.38416 0,-0.769043 -0.615121,-1.38416 -1.38416,-1.38416 -5.00317,0 -9.08338,-4.07 -9.08338,-9.08338l0 -15.4296c1.66083,-0.758555 6.04888,-2.55289 12.354,-3.63942 0.543404,-0.0924099 0.984194,-0.512507 1.10722,-1.04571l0.512507 -2.20423c0.512507,-2.17333 2.41938,-3.70093 4.66472,-3.70093l7.187 0.000283466c2.23485,0 4.15221,1.51739 4.66472,3.70093l0.512507 2.20423c0.123024,0.543404 0.563814,0.95358 1.10722,1.04571 6.28472,1.08681 10.6827,2.88086 12.354,3.63942l0 15.4296c0,5.00317 -4.07,9.08338 -9.08338,9.08338 -0.769043,0 -1.38416,0.615121 -1.38416,1.38416 0,0.769043 0.615121,1.38416 1.38416,1.38416 6.53077,0 11.8514,-5.31074 11.8514,-11.8514l0 -16.301c0,-0.51279 -0.276946,-0.984194 -0.738145,-1.22004z"/>
     <path id="_153807896" class="fil0" d="M4.53149 12.718c0.143434,0 0.287151,-0.0204096 0.430585,-0.0717169 1.45588,-0.481892 2.98348,-0.912477 4.54169,-1.28155 0.74835,-0.174332 1.19963,-0.922682 1.0253,-1.66083 -0.174332,-0.74835 -0.922682,-1.19963 -1.66083,-1.0253 -1.63021,0.389482 -3.23973,0.84076 -4.77754,1.34306 -0.727941,0.235844 -1.11742,1.0253 -0.881579,1.74275 0.204946,0.584507 0.74835,0.95358 1.32237,0.95358z"/>
     <path id="_153812992" class="fil0" d="M25.0051 13.8456c-8.78603,0 -15.9319,7.14589 -15.9319,15.9319 0,8.78603 7.14589,15.9421 15.9319,15.9421 8.78603,0 15.9319,-7.14589 15.9319,-15.9319 0,-8.78603 -7.14589,-15.9421 -15.9319,-15.9421zm0 29.106c-7.25843,0 -13.1639,-5.90516 -13.1639,-13.1639 0,-7.25871 5.90516,-13.1741 13.1639,-13.1741 7.25871,0 13.1639,5.90516 13.1639,13.1639 0,7.25871 -5.90516,13.1741 -13.1639,13.1741z"/>
    </g>
   </g>
   <g>
   </g>
   <g>
   </g>
   <g>
   </g>
   <g>
   </g>
   <g>
   </g>
   <g>
   </g>
   <g>
   </g>
   <g>
   </g>
   <g>
   </g>
   <g>
   </g>
   <g>
   </g>
   <g>
   </g>
   <g>
   </g>
   <g>
   </g>
   <g>
   </g>
  </g>
 </g>
</svg>
