<?xml version="1.0" encoding="UTF-8"?>
<!DOCTYPE svg PUBLIC "-//W3C//DTD SVG 1.1//EN" "http://www.w3.org/Graphics/SVG/1.1/DTD/svg11.dtd">
<svg xmlns="http://www.w3.org/2000/svg" xml:space="preserve" width="50px" height="50px" style="shape-rendering:geometricPrecision; text-rendering:geometricPrecision; image-rendering:optimizeQuality; fill-rule:evenodd; clip-rule:evenodd"
viewBox="0 0 50 50"
 version="1.1"
 xmlns:xlink="http://www.w3.org/1999/xlink">
 <defs>
  <style type="text/css">
    .fil0 {fill:#131516}
  </style>
 </defs>
     <path id="_149583632" class="fil0" d="M34.3751 0l-18.7501 0c-8.62814,0 -15.6249,6.99679 -15.6249,15.6249l0 18.7499c0,8.62814 6.99679,15.6249 15.6249,15.6249l18.7501 0.000283466c8.62814,0 15.6249,-6.99679 15.6249,-15.6249l0 -18.7501c0,-8.62814 -6.99679,-15.6249 -15.6249,-15.6249zm10.9375 34.3751c0,6.03131 -4.90623,10.9375 -10.9375,10.9375l-18.7501 0c-6.03131,0 -10.9375,-4.90623 -10.9375,-10.9375l0 -18.7501c0,-6.03131 4.90623,-10.9375 10.9375,-10.9375l18.7501 0c6.03131,0 10.9375,4.90623 10.9375,10.9375l0 18.7501z"/>
     <path id="_149590984" class="fil0" d="M25 12.5c-6.90325,0 -12.5,5.59675 -12.5,12.5 0,6.90325 5.59675,12.5 12.5,12.5 6.90325,0 12.5,-5.59675 12.5,-12.5 0,-6.90325 -5.59675,-12.5 -12.5,-12.5zm0 20.3126c-4.30613,0 -7.81261,-3.50619 -7.81261,-7.81261 0,-4.30925 3.50619,-7.81261 7.81261,-7.81261 4.30642,0 7.81261,3.50307 7.81261,7.81261 0,4.30613 -3.50647,7.81261 -7.81261,7.81261z"/>
     <circle id="_149594400" class="fil0" cx="38.4374" cy="11.5626" r="1.66565"/>
</svg>
