<?xml version="1.0" encoding="UTF-8" standalone="no"?>
<svg
   xmlns:dc="http://purl.org/dc/elements/1.1/"
   xmlns:cc="http://creativecommons.org/ns#"
   xmlns:rdf="http://www.w3.org/1999/02/22-rdf-syntax-ns#"
   xmlns:svg="http://www.w3.org/2000/svg"
   xmlns="http://www.w3.org/2000/svg"
   xmlns:sodipodi="http://sodipodi.sourceforge.net/DTD/sodipodi-0.dtd"
   xmlns:inkscape="http://www.inkscape.org/namespaces/inkscape"
   sodipodi:docname="logo.svg"
   inkscape:version="1.0 (4035a4fb49, 2020-05-01)"
   id="svg8"
   version="1.1"
   viewBox="0 0 100 50.000005"
   height="50"
   width="100">
  <defs
     id="defs2">
  
  
  
 </defs>
  <sodipodi:namedview
     inkscape:snap-global="false"
     inkscape:object-paths="true"
     inkscape:window-maximized="0"
     inkscape:window-y="0"
     inkscape:window-x="0"
     inkscape:window-height="728"
     inkscape:window-width="1008"
     inkscape:snap-bbox-edge-midpoints="true"
     inkscape:bbox-nodes="false"
     inkscape:bbox-paths="true"
     inkscape:snap-intersection-paths="true"
     inkscape:snap-bbox-midpoints="true"
     inkscape:snap-bbox="true"
     units="px"
     showgrid="false"
     inkscape:document-rotation="0"
     inkscape:current-layer="g149"
     inkscape:document-units="px"
     inkscape:cy="24.095552"
     inkscape:cx="72.259871"
     inkscape:zoom="2.8"
     inkscape:pageshadow="2"
     inkscape:pageopacity="1"
     borderopacity="1.0"
     bordercolor="#666666"
     pagecolor="#3f3f3f"
     id="base" />
  <metadata
     id="metadata5">
    <rdf:RDF>
      <cc:Work
         rdf:about="">
        <dc:format>image/svg+xml</dc:format>
        <dc:type
           rdf:resource="http://purl.org/dc/dcmitype/StillImage" />
        <dc:title></dc:title>
      </cc:Work>
    </rdf:RDF>
  </metadata>
  <g
     id="layer1"
     inkscape:groupmode="layer"
     inkscape:label="Layer 1">
    <g
       transform="matrix(1.5210722,0,0,1.5210722,-16.465578,-282.48379)"
       id="g149"
       style="font-style:normal;font-variant:normal;font-weight:normal;font-stretch:normal;font-size:40px;line-height:1.25;font-family:'Adobe Devanagari';-inkscape-font-specification:'Adobe Devanagari, Normal';font-variant-ligatures:normal;font-variant-caps:normal;font-variant-numeric:normal;font-variant-east-asian:normal;word-spacing:0px;fill:#f9f9f9">
      <path
         style="fill:#1a1a1a;fill-opacity:1"
         sodipodi:nodetypes="cccssccccsscc"
         id="path139"
         d="M 24.115433,187.02846 H 10.824981 v 1.13281 c 3.085937,0.25391 5.360408,0.46875 5.360408,3.51563 v 12.53906 c 0,3.16406 -0.03906,5.19531 -0.351563,6.93359 -0.449218,2.12891 -1.5625,3.86719 -3.710937,4.92188 l 0.585937,1.17187 c 0.898438,-0.37109 2.03125,-0.97656 3.222657,-2.07031 2.207031,-2.10938 3.085937,-4.53125 3.085937,-9.57031 V 191.6769 c 0,-3.04688 2.586852,-3.48493 5.098013,-3.51563 z" />
      <path
         style="fill:#1a1a1a;fill-opacity:1"
         sodipodi:nodetypes="ccccscsccssccccscscczzccscsscsc"
         id="path141"
         d="m 45.708707,210.17296 c -0.668834,-0.0158 -1.777344,-0.50778 -2.753906,-1.60153 -0.9375,-1.01563 -1.5625,-1.77735 -2.96875,-3.73047 -1.09375,-1.64063 -2.65625,-4.10156 -3.300782,-5.33203 2.792969,-1.23047 4.707032,-3.24219 4.707032,-6.46485 0,-2.16797 -1.015625,-3.84765 -2.539063,-4.82422 -1.328125,-0.85937 -3.183594,-1.1914 -5.722656,-1.1914 h -9.0625 v 1.13281 c 2.621906,0.0487 3.261719,0.3125 3.261719,3.47656 v 14.7461 c 0,3.16406 -0.332032,3.33984 -3.457032,3.53515 v 1.15235 h 9.589844 v -1.15235 c -3.027344,-0.19531 -3.339844,-0.41015 -3.339844,-3.53515 v -5.76172 h 1.308594 c 2.050781,0 2.675781,0.41015 3.320313,1.42578 1.054687,1.73828 2.480468,4.12109 3.75,5.9375 1.835937,2.44141 4.305171,3.21281 5.683593,3.30078 1.378422,0.088 1.259766,0.0781 1.523438,0.0781 0.263672,0 0,-1.19141 0,-1.19141 z M 30.122769,199.35268 v -8.98438 c 0,-1.01562 0.09766,-1.44531 0.429688,-1.69922 0.292969,-0.19531 0.898437,-0.33203 1.992187,-0.33203 2.949219,0 5.703125,1.36719 5.703125,5.33203 0,2.03125 -0.664062,3.4375 -2.109375,4.57032 -0.9375,0.76171 -2.109375,1.11328 -4.0625,1.11328 z" />
      <path
         style="fill:#1a1a1a;fill-opacity:1"
         sodipodi:nodetypes="cccccccccccccccccccccccccccccc"
         id="path143"
         d="m 76.568082,211.36437 v -1.15235 c -3.261719,-0.2539 -3.417969,-0.44922 -3.515625,-4.55078 l -0.332031,-12.91015 c -0.15625,-4.02344 0.136718,-3.98438 3.4375,-4.29688 v -1.13281 h -6.230469 l -8.75,18.75 -8.476563,-18.75 h -5.917968 v 1.13281 c 3.417968,0.3125 3.515625,0.39063 3.203125,5.09766 l -0.507813,7.69531 c -0.253906,3.90625 -0.507812,5.46875 -0.703125,6.69922 -0.706304,1.89094 -2.241055,2.19018 -3.144531,2.22656 v 1.19141 h 8.730469 v -1.19141 c -2.421875,-0.21484 -3.359375,-0.46875 -3.476563,-2.22656 -0.03906,-1.36719 0,-2.85156 0.175781,-6.05469 l 0.507813,-10.68359 h 0.07813 l 8.300781,19.86328 h 0.761719 l 9.179687,-20.41016 h 0.07813 l 0.175782,15 c 0,4.10156 -0.07813,4.29688 -3.164063,4.55078 v 1.15235 z" />
    </g>
  </g>
</svg>
