<?xml version="1.0" encoding="UTF-8"?>
<!DOCTYPE svg PUBLIC "-//W3C//DTD SVG 1.1//EN" "http://www.w3.org/Graphics/SVG/1.1/DTD/svg11.dtd">
<!-- Creator: CorelDRAW -->
<svg xmlns="http://www.w3.org/2000/svg" xml:space="preserve" width="50px" height="50px" style="shape-rendering:geometricPrecision; text-rendering:geometricPrecision; image-rendering:optimizeQuality; fill-rule:evenodd; clip-rule:evenodd"
viewBox="0 0 50 50"
 version="1.1"
 xmlns:xlink="http://www.w3.org/1999/xlink">
 <defs>
  <style type="text/css">
   <![CDATA[
    .fil0 {fill:#131516}
   ]]>
  </style>
 </defs>
 <g id="Capa_x0020_1">
  <metadata id="CorelCorpID_0Corel-Layer"/>
  <g id="_22175616">
   <g>
    <g>
     <path id="_148890440" class="fil0" d="M25 18.9284c-3.34688,0 -6.07156,2.72439 -6.07156,6.07156 0,3.34717 2.72439,6.07156 6.07156,6.07156 3.34717,0 6.07156,-2.72439 6.07156,-6.07156 0,-3.34717 -2.72468,-6.07156 -6.07156,-6.07156zm3.57139 6.07156c0,1.96952 -1.60215,3.57139 -3.57139,3.57139 -1.96924,0 -3.57139,-1.60215 -3.57139,-3.57139 0,-1.96924 1.60215,-3.57139 3.57139,-3.57139 1.96924,0 3.57139,1.60187 3.57139,3.57139z"/>
     <path id="_148892120" class="fil0" d="M18.9284 43.9284c0,3.34688 2.72439,6.07156 6.07156,6.07156 3.34717,0 6.07156,-2.72439 6.07156,-6.07156 0,-3.34717 -2.72468,-6.07127 -6.07156,-6.07127 -3.34688,0 -6.07156,2.72439 -6.07156,6.07127zm9.64295 0c0,1.96952 -1.60215,3.57139 -3.57139,3.57139 -1.96924,0 -3.57139,-1.60215 -3.57139,-3.57139 0,-1.96924 1.60215,-3.57139 3.57139,-3.57139 1.96924,0 3.57139,1.60215 3.57139,3.57139z"/>
     <path id="_148894552" class="fil0" d="M18.9284 6.07156c0,3.34688 2.72439,6.07156 6.07156,6.07156 3.34717,0 6.07156,-2.72439 6.07156,-6.07156 0,-3.34717 -2.72468,-6.07156 -6.07156,-6.07156 -3.34688,0 -6.07156,2.72439 -6.07156,6.07156zm9.64295 0c0,1.96952 -1.60215,3.57139 -3.57139,3.57139 -1.96924,0 -3.57139,-1.60215 -3.57139,-3.57139 0,-1.96924 1.60215,-3.57139 3.57139,-3.57139 1.96924,0 3.57139,1.60187 3.57139,3.57139z"/>
    </g>
   </g>
   <g>
   </g>
   <g>
   </g>
   <g>
   </g>
   <g>
   </g>
   <g>
   </g>
   <g>
   </g>
   <g>
   </g>
   <g>
   </g>
   <g>
   </g>
   <g>
   </g>
   <g>
   </g>
   <g>
   </g>
   <g>
   </g>
   <g>
   </g>
   <g>
   </g>
  </g>
 </g>
</svg>
