<?xml version="1.0" encoding="UTF-8"?>
<!DOCTYPE svg PUBLIC "-//W3C//DTD SVG 1.1//EN" "http://www.w3.org/Graphics/SVG/1.1/DTD/svg11.dtd">
<!-- Creator: CorelDRAW -->
<svg xmlns="http://www.w3.org/2000/svg" xml:space="preserve" width="50px" height="50px" style="shape-rendering:geometricPrecision; text-rendering:geometricPrecision; image-rendering:optimizeQuality; fill-rule:evenodd; clip-rule:evenodd"
viewBox="0 0 50 50"
 version="1.1"
 xmlns:xlink="http://www.w3.org/1999/xlink">
 <defs>
  <style type="text/css">
   <![CDATA[
    .fil0 {fill:#131516}
   ]]>
  </style>
 </defs>
 <g id="Capa_x0020_1">
  <metadata id="CorelCorpID_0Corel-Layer"/>
  <g id="_152690256">
   <g>
    <path id="_153541304" class="fil0" d="M49.5717 0.434837c-0.415845,-0.415845 -1.05534,-0.532916 -1.58826,-0.29849l-47.1174 20.6485c-0.500884,0.223938 -0.831406,0.703563 -0.863437,1.24725 -0.0320317,0.543688 0.25597,1.05534 0.724823,1.3218l16.4271 9.31668 9.75378 16.5978c0.25597,0.437105 0.735594,0.714334 1.23648,0.714334 0.0320317,0 0.0532916,0 0.0853233,0 0.543688,-0.0320317 1.01282,-0.362553 1.23648,-0.863437l20.4141 -47.0962c0.23471,-0.543688 0.117355,-1.17242 -0.308978,-1.58826zm-7.49399 5.42611l-24.113 23.9529 -13.3144 -7.547 37.4274 -16.4059zm-14.1248 39.5061l-7.94158 -13.5276 24.2514 -24.0915 -16.3098 37.6191z"/>
   </g>
   <g>
   </g>
   <g>
   </g>
   <g>
   </g>
   <g>
   </g>
   <g>
   </g>
   <g>
   </g>
   <g>
   </g>
   <g>
   </g>
   <g>
   </g>
   <g>
   </g>
   <g>
   </g>
   <g>
   </g>
   <g>
   </g>
   <g>
   </g>
   <g>
   </g>
  </g>
 </g>
</svg>
