<?xml version="1.0" encoding="UTF-8"?>
<!DOCTYPE svg PUBLIC "-//W3C//DTD SVG 1.1//EN" "http://www.w3.org/Graphics/SVG/1.1/DTD/svg11.dtd">
<!-- Creator: CorelDRAW -->
<svg xmlns="http://www.w3.org/2000/svg" xml:space="preserve" width="50px" height="50px" style="shape-rendering:geometricPrecision; text-rendering:geometricPrecision; image-rendering:optimizeQuality; fill-rule:evenodd; clip-rule:evenodd"
viewBox="0 0 50 50"
 version="1.1"
 xmlns:xlink="http://www.w3.org/1999/xlink">
 <defs>
  <style type="text/css">
   <![CDATA[
    .fil0 {fill:#131516}
   ]]>
  </style>
 </defs>
 <g id="Capa_x0020_1">
  <metadata id="CorelCorpID_0Corel-Layer"/>
  <g id="_147277880">
   <g>
    <g>
     <path id="_148912752" class="fil0" d="M25.002 22.4131l22.5809 22.5806c0.55531,0.55531 1.44596,0.55531 2.00127,0 0.55531,-0.55531 0.55531,-1.44568 0,-2.00099l-23.5866 -23.5866c-0.55531,-0.55531 -1.44568,-0.55531 -2.00099,0l-23.5762 23.5866c-0.272411,0.272411 -0.419246,0.639216 -0.419246,0.995533 0,0.356033 0.136347,0.722838 0.419246,0.995249 0.55531,0.55531 1.44596,0.55531 2.00127,0l22.5803 -22.5704z"/>
    </g>
    <g>
    </g>
    <g>
    </g>
    <g>
    </g>
    <g>
    </g>
    <g>
    </g>
    <g>
    </g>
    <g>
    </g>
    <g>
    </g>
    <g>
    </g>
    <g>
    </g>
    <g>
    </g>
    <g>
    </g>
    <g>
    </g>
    <g>
    </g>
    <g>
    </g>
   </g>
   <g>
    <g>
     <path id="_21892912" class="fil0" d="M25.002 8.01302l22.5809 22.5806c0.55531,0.55531 1.44596,0.55531 2.00127,0 0.55531,-0.55531 0.55531,-1.44568 0,-2.00099l-23.5866 -23.5866c-0.55531,-0.55531 -1.44568,-0.55531 -2.00099,0l-23.5762 23.5866c-0.272411,0.272411 -0.419246,0.639216 -0.419246,0.995533 0,0.356033 0.136347,0.722838 0.419246,0.995249 0.55531,0.55531 1.44596,0.55531 2.00127,0l22.5803 -22.5704z"/>
    </g>
    <g>
    </g>
    <g>
    </g>
    <g>
    </g>
    <g>
    </g>
    <g>
    </g>
    <g>
    </g>
    <g>
    </g>
    <g>
    </g>
    <g>
    </g>
    <g>
    </g>
    <g>
    </g>
    <g>
    </g>
    <g>
    </g>
    <g>
    </g>
    <g>
    </g>
   </g>
  </g>
 </g>
</svg>
