<?xml version="1.0" encoding="UTF-8"?>
<!DOCTYPE svg PUBLIC "-//W3C//DTD SVG 1.1//EN" "http://www.w3.org/Graphics/SVG/1.1/DTD/svg11.dtd">
<!-- Creator: CorelDRAW -->
<svg xmlns="http://www.w3.org/2000/svg" xml:space="preserve" width="50px" height="50px" style="shape-rendering:geometricPrecision; text-rendering:geometricPrecision; image-rendering:optimizeQuality; fill-rule:evenodd; clip-rule:evenodd"
viewBox="0 0 50 50">
 <defs>
  <style type="text/css">
   <![CDATA[
    .fil0 {fill:#131516}
   ]]>
  </style>
 </defs>
 <g id="Capa_x0020_1">
  <metadata id="CorelCorpID_0Corel-Layer"/>
  <path class="fil0" d="M18.6535 45.4606c-2.16228,0 -4.38777,-0.175182 -6.62658,-0.526113 -3.9433,-0.618806 -7.93478,-2.6813 -9.06439,-3.29898l-2.9625 -1.61972 3.20742 -1.05478c3.50619,-1.15286 5.63899,-1.86804 8.27891,-2.98802 -2.6436,-1.28013 -4.68087,-3.58301 -5.66167,-6.55969l-0.746082 -2.26518 0.612003 0.0935438c-0.580255,-0.58479 -1.03834,-1.17837 -1.39352,-1.71809 -1.26312,-1.9185 -1.93182,-4.26248 -1.78952,-6.2714l0.140316 -1.97718 1.18375 0.458648c-0.499467,-0.943091 -0.860319,-1.94996 -1.07235,-3.00559 -0.516759,-2.57415 -0.0841894,-5.30903 1.21834,-7.70035l1.03125 -1.89299 1.37906 1.65629c4.36141,5.23902 9.88531,8.34694 16.4416,9.25658 -0.267875,-1.84593 -0.0671814,-3.62751 0.596979,-5.22428 0.773295,-1.85925 2.14839,-3.43589 3.97646,-4.55955 2.03018,-1.24782 4.49209,-1.85245 6.93244,-1.7025 2.58889,0.159024 4.93968,1.12905 6.80659,2.80716 0.911627,-0.236978 1.58344,-0.489829 2.49138,-0.831689 0.546239,-0.205513 1.1659,-0.439089 1.94089,-0.706114l2.85649 -0.984194 -1.86266 5.32009c0.122741,-0.0102048 0.24945,-0.0189922 0.381829,-0.0246615l3.05009 -0.138048 -1.80284 2.46389c-0.103465,0.141166 -0.129827,0.181135 -0.166395,0.236411 -0.145418,0.218836 -0.326269,0.491247 -2.80064,3.79561 -0.619373,0.827437 -0.928918,1.90517 -0.871374,3.03507 0.219403,4.29394 -0.307561,8.17856 -1.56672,11.5461 -1.19084,3.18616 -3.03649,5.91962 -5.48478,8.12499 -3.02968,2.72836 -6.89276,4.5964 -11.4826,5.5514 -2.251,0.468569 -4.66897,0.703563 -7.17141,0.703563l0.000283466 -0.000283466zm0 0z"/>
 </g>
</svg>
